<?xml version="1.0" standalone="no"?>
<!DOCTYPE svg PUBLIC "-//W3C//DTD SVG 20010904//EN"
 "http://www.w3.org/TR/2001/REC-SVG-20010904/DTD/svg10.dtd">
<svg version="1.0" xmlns="http://www.w3.org/2000/svg"
 width="1080.000000pt" height="1080.000000pt" viewBox="0 0 1080.000000 1080.000000"
 preserveAspectRatio="xMidYMid meet">

<g transform="translate(0.000000,1080.000000) scale(0.100000,-0.100000)"
fill="#000000" stroke="none">
<path d="M5388 10685 c-3 -3 -98 -10 -212 -16 -233 -11 -643 -58 -786 -89
-237 -51 -410 -93 -470 -114 -36 -13 -123 -40 -195 -60 -71 -21 -141 -43 -155
-51 -14 -7 -74 -33 -135 -58 -60 -25 -148 -61 -193 -81 -46 -20 -89 -36 -96
-36 -6 0 -27 -11 -46 -23 -19 -13 -107 -61 -195 -106 -88 -46 -167 -88 -175
-95 -14 -12 -158 -103 -326 -208 -42 -26 -117 -80 -167 -121 -51 -40 -123 -97
-161 -126 -144 -109 -394 -347 -595 -565 -233 -254 -531 -662 -674 -924 -234
-430 -364 -742 -501 -1202 -82 -277 -152 -683 -177 -1028 -15 -213 -6 -800 15
-967 71 -551 166 -930 349 -1390 355 -893 966 -1686 1751 -2273 756 -564 1634
-908 2606 -1018 190 -22 676 -30 896 -15 1292 87 2485 628 3394 1541 661 663
1119 1453 1365 2355 71 261 139 643 166 945 16 165 16 645 0 840 -49 624 -207
1230 -481 1835 -133 294 -383 699 -629 1015 -364 469 -834 893 -1352 1218
-302 190 -822 441 -1064 513 -55 17 -174 54 -265 84 -91 29 -185 56 -210 60
-25 4 -112 22 -195 41 -82 19 -226 44 -320 55 -93 11 -197 24 -230 30 -33 6
-159 14 -280 19 -121 5 -227 11 -236 15 -8 3 -18 3 -21 0z m-20 -162 l-3 -108
-135 -7 c-74 -3 -158 -9 -187 -12 -65 -8 -68 -3 -77 121 l-7 91 63 6 c75 7
154 12 266 14 l83 2 -3 -107z m-865 -75 c9 -57 13 -106 9 -110 -12 -12 -406
-98 -414 -90 -7 8 -58 172 -58 189 0 14 31 24 210 63 80 17 161 35 180 40 19
4 40 8 46 9 5 1 17 -45 27 -101z m1427 -112 c1397 -155 2608 -849 3463 -1983
373 -495 673 -1132 822 -1746 121 -498 158 -875 136 -1409 -17 -408 -35 -553
-111 -883 -57 -245 -156 -580 -181 -611 -5 -6 -16 -36 -25 -65 -20 -68 -88
-233 -115 -278 -11 -19 -31 -61 -44 -94 -26 -64 -159 -312 -180 -337 -7 -8
-29 -45 -48 -81 -40 -77 -147 -238 -170 -257 -9 -8 -25 -32 -37 -54 -24 -46
-125 -182 -185 -248 -22 -25 -61 -72 -85 -105 -54 -73 -387 -408 -490 -492
-41 -34 -86 -73 -100 -86 -51 -49 -243 -199 -269 -210 -14 -6 -39 -23 -56 -38
-56 -50 -321 -220 -366 -234 -13 -4 -36 -17 -50 -29 -25 -21 -134 -77 -399
-204 -133 -64 -307 -132 -338 -132 -10 0 -22 -4 -27 -9 -15 -15 -132 -56 -241
-86 -54 -14 -137 -37 -184 -50 -109 -31 -244 -61 -362 -79 -51 -8 -131 -22
-178 -31 -47 -8 -128 -18 -180 -20 -52 -3 -142 -9 -199 -15 -242 -22 -787 -1
-1040 40 -68 11 -127 22 -131 25 -4 2 -33 7 -64 10 -70 7 -232 41 -289 61 -23
8 -75 22 -116 30 -94 20 -337 100 -377 125 -17 10 -40 19 -50 19 -33 0 -268
97 -314 130 -16 11 -34 20 -42 20 -22 0 -266 124 -338 171 -36 24 -81 51 -100
60 -58 27 -233 139 -266 170 -16 16 -46 37 -65 47 -44 23 -170 117 -253 190
-35 31 -86 73 -112 92 -67 49 -450 432 -504 505 -25 32 -62 77 -84 100 -79 82
-323 426 -411 579 -27 48 -65 110 -83 139 -18 29 -58 104 -89 167 -31 63 -71
144 -89 180 -43 86 -129 294 -145 350 -7 25 -16 50 -19 55 -31 44 -150 472
-194 695 -84 425 -108 761 -87 1235 16 369 60 650 162 1039 194 732 587 1454
1093 2011 661 726 1442 1211 2366 1468 316 88 587 134 1010 171 112 10 693 -3
830 -18z m-2302 -118 c18 -51 32 -98 32 -104 0 -11 -48 -35 -253 -123 l-139
-59 -45 94 c-40 83 -44 97 -32 109 8 8 91 46 184 85 94 39 179 75 190 80 11 5
23 9 26 9 3 1 20 -41 37 -91z m-840 -350 c34 -51 82 -134 82 -142 0 -4 -26
-23 -57 -43 -32 -20 -109 -70 -172 -111 -63 -40 -119 -76 -125 -78 -10 -4 -37
28 -119 137 l-27 36 137 90 c176 115 236 153 245 153 4 0 20 -19 36 -42z
m-708 -569 c36 -44 66 -83 68 -88 3 -8 -303 -291 -315 -291 -5 0 -42 34 -83
75 l-74 75 69 71 c72 74 256 239 265 238 3 0 34 -36 70 -80z m-622 -653 c39
-32 72 -63 72 -70 0 -18 -209 -286 -224 -286 -7 0 -52 27 -100 61 l-87 60 38
52 c123 170 202 260 217 249 6 -4 44 -34 84 -66z m-483 -686 c50 -29 91 -54
93 -56 6 -4 -195 -384 -204 -384 -2 0 -47 20 -99 44 -77 36 -95 49 -95 66 0
34 194 394 208 387 4 -2 48 -28 97 -57z m-379 -816 c54 -19 100 -36 101 -38 2
-1 -20 -74 -47 -162 -28 -87 -56 -178 -62 -202 -6 -23 -14 -45 -19 -48 -11 -6
-210 43 -222 55 -13 13 124 431 143 431 4 0 52 -16 106 -36z m-232 -873 c60
-11 110 -21 111 -23 2 -2 -7 -80 -21 -173 -13 -94 -24 -190 -24 -213 l0 -44
-97 7 c-159 10 -154 8 -148 63 20 169 46 370 51 385 7 21 -2 21 128 -2z m50
-1063 c4 -90 9 -184 12 -209 l6 -46 -45 -6 c-25 -4 -81 -9 -125 -13 l-79 -7
-6 79 c-4 44 -10 143 -13 222 l-7 142 125 0 125 0 7 -162z m76 -720 c11 -27
80 -337 80 -361 0 -9 -6 -19 -12 -23 -24 -15 -213 -63 -220 -56 -6 7 -41 149
-77 317 -11 50 -16 93 -13 97 5 5 136 32 225 47 4 0 12 -9 17 -21z m9976 -441
c3 -3 -101 -337 -121 -384 -12 -29 -23 -43 -36 -43 -21 0 -130 36 -170 56
l-27 13 54 168 c29 92 58 187 64 209 l10 42 112 -29 c61 -16 113 -30 114 -32z
m-9702 -490 c27 -67 64 -155 83 -196 18 -41 30 -78 26 -82 -5 -4 -56 -30 -115
-57 l-106 -50 -55 126 c-89 203 -119 284 -109 294 10 10 201 87 217 88 6 0 32
-55 59 -123z m9282 -331 c58 -28 94 -51 94 -60 0 -18 -166 -344 -188 -368 -8
-10 -19 -18 -24 -18 -12 0 -137 73 -168 98 l-23 19 88 164 c100 187 113 209
122 209 3 0 48 -20 99 -44z m-8941 -368 c9 -13 61 -92 116 -177 78 -124 96
-158 87 -169 -7 -8 -52 -43 -101 -78 l-89 -64 -17 23 c-76 101 -232 360 -222
370 12 12 194 116 203 117 4 0 14 -10 23 -22z m8489 -415 c47 -32 86 -63 86
-69 0 -7 -52 -80 -116 -163 l-116 -151 -27 19 c-14 10 -55 46 -91 79 l-65 59
60 79 c128 168 157 204 170 204 7 0 52 -26 99 -57z m-7846 -438 l143 -155 -88
-96 -88 -95 -68 73 c-38 40 -108 117 -155 172 l-86 99 44 40 c61 55 140 117
148 117 4 0 71 -70 150 -155z m7300 -203 c45 -43 82 -83 82 -89 0 -9 -239
-234 -301 -282 l-27 -21 -55 58 c-30 31 -67 71 -81 88 l-25 31 87 79 c48 43
119 109 157 146 39 37 72 68 75 68 3 0 42 -36 88 -78z m-6697 -349 c63 -47
126 -97 141 -111 l27 -25 -61 -89 c-34 -49 -68 -94 -75 -100 -11 -9 -25 -4
-61 22 -106 74 -252 194 -252 206 0 22 141 183 161 184 4 0 58 -39 120 -87z
m5995 -216 c28 -39 59 -84 68 -98 l16 -26 -83 -56 c-141 -94 -290 -187 -301
-187 -9 0 -121 190 -121 206 0 8 347 233 360 233 6 1 33 -32 61 -72z m-5261
-255 c105 -57 181 -104 183 -113 3 -17 -84 -205 -99 -215 -8 -4 -337 161 -388
195 -11 7 -1 31 49 120 35 61 66 111 69 111 3 -1 87 -45 186 -98z m4488 -213
c26 -55 47 -107 47 -115 0 -13 -60 -45 -150 -79 -19 -8 -84 -34 -145 -59 -60
-25 -113 -42 -117 -38 -4 4 -25 55 -47 112 -29 78 -36 108 -27 116 6 5 61 30
121 54 61 24 144 59 185 77 41 18 78 33 81 33 3 0 27 -45 52 -101z m-3603
-150 c151 -45 142 -34 119 -126 -22 -90 -48 -163 -57 -163 -10 0 -169 49 -299
91 -78 26 -123 46 -123 54 0 8 19 63 41 124 l41 109 87 -29 c47 -16 133 -43
191 -60z m2739 -86 c27 -95 44 -194 35 -202 -20 -18 -408 -106 -425 -96 -22
14 -57 221 -40 238 9 9 336 85 413 96 4 1 12 -16 17 -36z m-2027 -73 c73 -10
171 -22 216 -26 l84 -7 -6 -31 c-2 -17 -8 -75 -12 -129 l-7 -99 -86 7 c-47 4
-147 17 -221 29 l-135 21 1 55 c1 54 22 200 29 200 2 0 64 -9 137 -20z m1141
-47 c3 -5 8 -60 12 -124 l7 -116 -38 -6 c-22 -4 -117 -10 -211 -13 l-173 -7 0
131 0 131 133 4 c72 1 162 4 199 5 37 1 69 -1 71 -5z"/>
<path d="M5164 10085 c-208 -45 -334 -208 -337 -435 0 -47 5 -110 12 -140 70
-295 359 -431 639 -300 106 50 194 160 221 281 15 65 13 207 -4 272 -64 248
-278 377 -531 322z m210 -129 c135 -41 218 -196 203 -379 -16 -192 -140 -297
-336 -285 -86 5 -138 27 -187 80 -139 147 -120 455 34 550 75 46 197 61 286
34z"/>
<path d="M5996 9883 c-84 -382 -146 -673 -146 -682 0 -5 19 -11 43 -15 23 -4
52 -9 63 -12 19 -5 23 1 38 63 20 85 102 465 111 516 4 20 11 39 15 42 8 5 10
-1 112 -295 l65 -185 64 -16 64 -17 188 192 c103 105 186 182 183 171 -3 -11
-23 -105 -46 -210 -22 -104 -52 -239 -65 -300 -13 -60 -22 -111 -20 -113 2 -2
31 -10 65 -17 46 -10 62 -10 65 -1 7 17 186 849 188 870 2 16 -9 22 -63 34
l-65 14 -35 -39 c-143 -161 -424 -452 -430 -446 -4 4 -54 149 -111 320 l-104
313 -55 11 c-30 6 -59 13 -65 16 -7 2 -29 -78 -59 -214z"/>
<path d="M4125 9869 c-56 -13 -318 -100 -328 -109 -7 -6 266 -856 279 -870 11
-11 352 112 400 144 151 102 214 281 169 474 -60 255 -289 414 -520 361z m190
-136 c98 -33 182 -154 206 -298 22 -128 -20 -233 -115 -293 -41 -26 -233 -99
-240 -91 -14 16 -206 623 -200 629 20 18 202 69 250 70 28 0 72 -7 99 -17z"/>
<path d="M8402 8738 c-108 -107 -255 -251 -327 -320 l-130 -127 45 -45 c24
-26 48 -45 52 -44 4 2 70 62 146 135 l140 132 138 -144 c76 -80 141 -145 145
-145 10 0 89 71 89 80 0 5 -64 75 -142 155 l-141 146 89 90 c49 49 94 89 100
89 7 0 89 -80 183 -177 l172 -177 45 46 46 45 -218 224 c-120 123 -222 226
-227 227 -4 2 -96 -83 -205 -190z"/>
<path d="M2658 8781 c-64 -56 -123 -101 -130 -101 -7 0 -77 17 -155 39 -79 21
-143 36 -143 34 0 -2 27 -69 60 -149 l59 -145 -85 -130 c-47 -72 -84 -132 -82
-134 2 -1 72 3 157 10 153 13 154 13 172 -8 10 -12 53 -66 96 -119 43 -53 81
-97 85 -97 3 -1 21 61 39 137 17 75 35 144 40 153 4 9 71 40 148 70 78 30 141
56 141 59 0 3 -58 41 -129 84 -85 51 -131 85 -135 100 -3 11 -6 57 -7 101 -1
44 -4 106 -8 138 l-6 59 -117 -101z"/>
<path d="M5140 8810 c-233 -14 -544 -75 -804 -160 -879 -286 -1624 -938 -2025
-1771 -182 -379 -289 -757 -331 -1178 -13 -133 -13 -509 0 -642 33 -329 126
-700 246 -986 136 -327 390 -733 601 -965 347 -381 712 -652 1142 -849 341
-156 666 -248 1046 -296 159 -20 534 -21 735 -2 728 68 1432 386 1980 891 329
304 568 623 760 1013 242 492 350 968 350 1540 0 368 -61 730 -183 1090 -334
983 -1122 1781 -2097 2123 -465 163 -896 222 -1420 192z m485 -37 c12 -12 15
-27 11 -57 -3 -23 -8 -78 -12 -123 l-7 -83 -98 0 -99 0 0 140 0 140 94 0 c75
0 98 -3 111 -17z m548 -67 c54 -15 55 -30 18 -166 -33 -122 -32 -122 -146 -92
l-70 19 3 44 c2 47 31 198 39 213 6 10 96 0 156 -18z m553 -178 l72 -33 -47
-101 c-25 -56 -53 -111 -61 -123 l-15 -22 -74 30 c-41 16 -79 35 -84 40 -12
12 -2 51 45 173 30 79 31 80 62 75 17 -3 63 -20 102 -39z m-1154 -58 c660 -38
1264 -268 1769 -674 126 -101 422 -400 506 -511 429 -567 643 -1195 643 -1890
0 -621 -163 -1164 -507 -1694 -119 -183 -195 -274 -392 -472 -262 -262 -398
-365 -712 -540 -278 -154 -567 -254 -977 -338 -295 -61 -759 -61 -1014 0 -27
6 -48 12 -48 14 0 1 -4 26 -10 54 -30 161 -67 738 -80 1265 -11 447 -8 504 24
511 12 2 98 6 191 10 189 6 485 28 705 51 80 8 197 19 260 24 63 5 174 18 245
29 114 18 177 29 425 71 112 19 409 94 542 136 75 24 142 44 148 44 18 0 231
90 335 143 222 111 396 256 464 386 33 63 34 66 22 122 -33 161 -112 344 -204
469 -46 63 -225 240 -307 305 -31 23 -91 64 -135 91 -44 26 -82 50 -85 54 -7
8 -227 114 -270 130 -19 8 -62 25 -95 40 -33 14 -70 30 -83 36 -17 7 -38 49
-92 184 -39 96 -106 247 -150 335 -347 701 -742 1072 -1266 1190 -436 98 -791
-22 -1003 -338 -111 -165 -259 -546 -382 -978 l-21 -77 -72 -6 c-39 -4 -138
-11 -221 -16 -220 -13 -207 -8 -246 -99 -18 -42 -43 -92 -55 -112 -13 -20 -37
-65 -54 -100 -34 -72 -126 -233 -153 -270 -9 -13 -42 -62 -73 -109 -131 -197
-271 -342 -393 -405 -62 -32 -22 -27 116 14 76 22 162 45 191 51 29 5 119 27
200 48 81 22 181 46 222 55 41 8 137 29 213 47 77 18 143 28 147 24 4 -5 2
-49 -5 -99 -24 -160 -45 -414 -56 -680 -6 -143 -12 -261 -14 -263 -7 -8 -1324
-74 -1337 -66 -13 8 -47 181 -69 344 -30 227 -30 539 0 762 49 369 134 654
290 973 166 338 340 577 620 853 256 251 489 415 825 577 394 191 771 281
1281 303 17 1 105 -3 197 -8z m1691 -223 c26 -16 47 -34 47 -41 0 -16 -131
-207 -146 -213 -8 -3 -48 16 -89 42 l-75 47 41 79 c23 44 55 97 71 120 l29 40
37 -22 c20 -12 58 -35 85 -52z m421 -324 l78 -66 -100 -100 -100 -100 -65 58
c-36 32 -68 63 -71 70 -6 16 150 205 168 205 7 0 47 -30 90 -67z m401 -425
l65 -83 -42 -38 c-65 -57 -166 -120 -183 -114 -16 7 -110 124 -110 138 0 8
193 178 202 179 2 0 32 -37 68 -82z m-2778 -168 c84 -38 190 -158 290 -330 84
-142 209 -397 200 -406 -1 -1 -47 4 -102 12 -55 7 -176 18 -270 24 -93 6 -239
14 -324 19 -84 6 -156 12 -159 15 -7 8 51 281 90 421 39 142 65 192 117 233
50 38 94 41 158 12z m3133 -381 l29 -56 -121 -57 c-83 -39 -124 -54 -132 -47
-16 14 -92 158 -86 164 3 3 56 34 119 71 l115 66 24 -43 c13 -23 37 -67 52
-98z m199 -475 c12 -30 25 -73 30 -95 9 -40 9 -41 -25 -55 -25 -11 -208 -64
-220 -64 -10 0 -67 181 -60 188 10 10 213 81 233 81 17 1 26 -10 42 -55z
m-2929 -535 c63 -5 167 -19 231 -30 64 -10 119 -19 122 -19 10 0 187 -586 187
-617 0 -8 4 -12 9 -9 8 5 202 272 286 395 48 70 51 70 146 18 184 -101 300
-192 333 -261 62 -131 -45 -229 -359 -331 -71 -23 -152 -47 -180 -53 -151 -33
-204 -44 -350 -71 -175 -32 -628 -96 -795 -111 -58 -5 -210 -20 -338 -31 -128
-12 -235 -19 -239 -15 -11 11 25 628 58 998 l11 126 97 7 c53 3 105 7 116 9
52 8 563 5 665 -5z m3071 -59 c3 -25 9 -66 12 -91 l6 -47 -87 -6 c-48 -4 -110
-9 -138 -12 l-51 -6 -10 79 c-8 57 -7 81 1 90 14 14 167 42 221 40 39 -2 40
-3 46 -47z m38 -567 c0 -58 -12 -150 -20 -157 -2 -2 -64 1 -138 7 l-133 11 6
59 c3 33 6 77 6 98 l0 39 140 0 140 0 -1 -57z m-184 -515 c66 -12 122 -23 124
-24 6 -5 -38 -197 -47 -206 -9 -9 -241 47 -255 61 -17 17 26 191 46 191 7 0
66 -10 132 -22z m-6132 -262 c158 -72 711 -237 857 -256 30 -4 120 -19 200
-33 80 -14 171 -29 203 -34 l59 -8 77 -230 c224 -662 475 -1185 723 -1503 27
-35 48 -65 46 -67 -8 -9 -366 118 -494 175 -486 215 -904 546 -1222 968 -200
266 -392 639 -480 935 -21 71 -19 76 31 53z"/>
<path d="M7317 3684 c-37 -45 -45 -59 -36 -70 19 -23 32 -16 81 44 35 42 44
60 36 69 -18 22 -32 15 -81 -43z"/>
<path d="M7032 3571 c-18 -12 -41 -35 -53 -53 -56 -90 31 -239 149 -255 87
-12 173 79 157 165 -22 122 -161 200 -253 143z m126 -51 c68 -42 92 -126 49
-175 -47 -55 -142 -23 -181 60 -21 43 -15 77 19 111 29 29 69 31 113 4z"/>
<path d="M6845 3394 c-5 -1 -22 -5 -36 -8 -32 -7 -129 -83 -129 -101 0 -7 7
-18 15 -25 13 -11 21 -8 48 17 49 46 79 63 109 63 50 0 43 -65 -12 -115 -30
-27 -50 -68 -50 -101 0 -25 44 -114 56 -114 3 0 54 34 115 76 96 67 108 78 97
93 -7 9 -13 18 -15 20 -1 1 -40 -22 -86 -53 -46 -31 -89 -56 -95 -56 -7 0 -14
11 -18 25 -5 19 4 37 39 82 60 77 71 106 53 142 -21 40 -59 63 -91 55z"/>
<path d="M6466 3191 c-87 -57 -88 -181 -3 -269 69 -71 176 -59 229 26 42 68 3
195 -75 242 -42 26 -113 26 -151 1z m141 -63 c30 -33 53 -84 53 -120 0 -11
-13 -33 -29 -49 -56 -56 -130 -31 -167 56 -21 52 -18 83 15 116 41 41 87 40
128 -3z"/>
<path d="M6157 3066 c-72 -30 -71 -29 -63 -60 l6 -25 55 25 c80 37 120 41 134
15 16 -29 2 -51 -62 -95 -29 -20 -61 -50 -71 -66 -16 -28 -16 -34 -1 -85 8
-30 21 -55 28 -55 15 1 237 76 244 83 2 3 0 14 -6 26 -11 20 -12 19 -98 -10
-111 -37 -125 -37 -121 -2 2 21 20 40 68 76 77 57 80 61 80 109 0 28 -7 42
-31 62 -39 33 -85 33 -162 2z"/>
<path d="M5952 2882 c-65 -14 -72 -18 -66 -36 4 -12 8 -23 9 -24 2 -2 37 4 78
13 70 15 74 18 69 41 -2 13 -7 24 -11 23 -3 -1 -39 -8 -79 -17z"/>
<path d="M9054 8133 c-93 -58 -194 -121 -224 -140 -127 -78 -350 -221 -364
-232 -13 -11 -10 -20 21 -67 l36 -54 36 23 c58 36 191 119 420 263 118 74 217
131 220 126 3 -4 37 -58 75 -118 91 -143 100 -211 40 -284 -41 -49 -98 -73
-159 -68 -71 6 -103 32 -176 144 -34 52 -64 93 -66 91 -5 -5 -163 -523 -163
-534 0 -5 20 -40 45 -78 28 -44 46 -64 49 -55 3 8 30 98 61 199 30 101 57 186
58 188 2 2 16 -6 30 -17 55 -44 118 -64 197 -64 119 0 202 51 258 159 23 43
27 62 27 140 0 80 -3 95 -28 140 -50 88 -212 345 -218 345 -3 0 -82 -48 -175
-107z"/>
<path d="M1494 7853 c-98 -170 -121 -221 -135 -294 -24 -133 21 -260 131 -369
109 -108 233 -156 386 -149 68 3 91 10 156 42 50 24 91 53 116 82 41 46 212
328 212 348 0 3 -19 16 -42 30 -24 13 -158 90 -298 172 -140 81 -268 155 -285
165 -16 9 -58 34 -92 54 -34 20 -66 36 -71 36 -6 0 -41 -53 -78 -117z m235
-126 c58 -35 184 -108 279 -162 94 -55 172 -104 172 -108 0 -14 -91 -163 -122
-201 -44 -54 -123 -88 -201 -87 -139 1 -295 98 -353 219 -23 50 -29 112 -15
169 13 53 109 233 124 233 5 0 57 -28 116 -63z"/>
<path d="M9670 7355 c-19 -8 -129 -48 -245 -90 -426 -155 -540 -197 -549 -205
-7 -7 194 -583 208 -597 4 -4 99 28 109 37 7 6 -9 54 -122 366 l-40 111 125
45 c69 25 126 42 128 39 2 -3 34 -89 71 -191 37 -102 68 -186 69 -187 4 -4
100 29 110 38 5 4 2 26 -7 51 -8 24 -38 106 -66 183 -28 77 -51 145 -51 150 0
11 238 101 245 93 6 -5 67 -167 116 -305 23 -65 45 -128 50 -140 8 -22 9 -22
56 -6 75 24 75 26 37 128 -83 224 -174 476 -174 485 0 14 -28 12 -70 -5z"/>
<path d="M1006 6827 c-28 -89 -66 -214 -86 -277 -58 -182 -58 -164 6 -184 31
-10 60 -14 64 -9 5 4 22 55 40 113 100 331 111 362 128 355 10 -4 64 -21 121
-38 57 -17 105 -36 108 -43 2 -7 -21 -93 -51 -192 -31 -98 -56 -184 -56 -189
0 -11 80 -43 105 -43 11 0 32 58 101 285 15 50 30 93 34 98 5 6 110 -23 246
-68 8 -2 -14 -87 -62 -241 -41 -130 -72 -240 -68 -243 3 -3 29 -13 57 -22 38
-12 54 -13 59 -5 3 6 22 63 41 126 20 63 60 194 90 290 30 96 52 178 49 182
-4 3 -68 25 -142 48 -74 23 -198 61 -275 85 -77 24 -206 64 -287 89 -81 25
-153 46 -160 46 -8 0 -32 -64 -62 -163z"/>
<path d="M9830 6460 c-69 -9 -259 -35 -422 -56 -286 -37 -298 -39 -298 -60 0
-62 43 -327 62 -381 59 -170 215 -273 412 -273 141 0 257 43 348 128 136 127
155 256 92 630 -6 38 -6 38 -194 12z m85 -162 c34 -191 22 -284 -45 -361 -116
-132 -376 -154 -507 -43 -49 41 -80 117 -97 236 -8 58 -12 108 -8 112 4 4 43
11 87 17 70 9 268 35 460 60 104 14 103 15 110 -21z"/>
<path d="M1606 6039 c-2 -8 -9 -74 -15 -148 -6 -74 -12 -135 -14 -136 -1 -2
-177 13 -390 32 -214 19 -391 32 -394 30 -3 -3 -7 -33 -10 -66 -5 -57 -5 -60
18 -65 13 -3 188 -19 389 -36 201 -18 368 -35 371 -38 4 -4 1 -70 -6 -147 -7
-77 -11 -143 -8 -147 2 -5 30 -8 62 -8 l59 0 5 43 c14 102 60 677 55 683 -3 3
-31 8 -62 11 -42 4 -57 2 -60 -8z"/>
<path d="M9455 5481 c-80 -23 -111 -41 -173 -96 -137 -123 -178 -357 -92 -531
106 -215 433 -310 664 -192 62 31 143 114 175 180 112 223 38 484 -167 591
-125 66 -282 85 -407 48z m287 -141 c81 -25 151 -79 182 -142 46 -93 32 -250
-30 -340 -50 -71 -134 -108 -251 -110 -165 -1 -295 63 -345 171 -28 60 -31
183 -5 257 57 163 238 229 449 164z"/>
<path d="M754 5089 c13 -85 18 -98 34 -103 9 -2 60 -14 112 -26 52 -13 98 -25
102 -29 6 -6 71 -422 65 -426 -1 -2 -48 -29 -105 -61 l-103 -59 6 -60 c4 -33
10 -65 14 -71 6 -12 828 474 845 500 6 8 6 36 0 72 -9 58 -10 59 -49 71 -33
10 -806 207 -899 229 l-28 7 6 -44z m588 -234 c106 -25 201 -49 211 -53 14 -5
-27 -33 -169 -115 -117 -68 -190 -104 -194 -97 -4 6 -14 70 -24 143 -10 73
-20 140 -22 150 -3 9 -3 17 0 17 3 0 92 -20 198 -45z"/>
<path d="M9055 4508 c-11 -29 -21 -56 -23 -60 -2 -5 9 -13 25 -19 123 -46 573
-244 563 -247 -6 -2 -123 -21 -258 -41 l-247 -36 -27 -55 c-15 -30 -27 -60
-27 -66 -1 -6 66 -105 148 -220 82 -115 148 -211 145 -213 -2 -2 -52 17 -111
43 -390 167 -479 203 -488 196 -12 -10 -49 -109 -43 -115 3 -4 123 -55 661
-284 92 -39 171 -71 175 -71 4 0 18 27 31 60 28 69 37 48 -97 230 -47 63 -108
147 -137 185 -120 163 -137 187 -132 191 5 6 53 13 432 64 127 18 231 33 233
34 4 4 50 121 48 123 -2 2 -339 146 -629 269 -109 46 -204 84 -210 84 -7 0
-21 -24 -32 -52z"/>
<path d="M1530 4149 c-151 -60 -330 -130 -397 -156 -68 -25 -130 -51 -138 -57
-13 -9 1 -52 99 -301 126 -322 114 -305 197 -267 l38 17 -91 233 c-50 128 -89
234 -87 235 2 2 164 65 359 141 195 76 359 142 364 147 15 14 -28 114 -50 116
-10 1 -143 -48 -294 -108z"/>
<path d="M1975 3463 c-334 -228 -425 -290 -500 -341 -117 -79 -112 -71 -73
-131 18 -28 36 -51 41 -51 4 0 79 49 167 109 l160 110 51 -77 c29 -42 86 -126
127 -186 l75 -109 -29 -21 c-15 -12 -87 -61 -159 -110 -71 -49 -132 -90 -134
-92 -9 -9 72 -113 83 -107 16 10 740 504 745 509 2 2 -12 29 -33 59 l-36 55
-35 -22 c-19 -13 -94 -63 -166 -112 -80 -55 -133 -86 -137 -79 -4 6 -56 83
-117 172 -60 89 -114 168 -120 176 -5 8 -7 16 -5 18 3 2 76 53 163 112 87 59
156 111 155 114 -12 28 -65 100 -73 100 -5 0 -73 -43 -150 -96z"/>
<path d="M8518 2860 l-117 -100 -150 39 c-83 22 -151 36 -151 32 0 -5 25 -67
55 -139 30 -72 55 -137 55 -143 0 -7 -36 -69 -80 -137 -45 -69 -78 -127 -76
-130 3 -3 73 1 156 8 83 7 152 11 154 9 2 -2 47 -57 99 -122 53 -64 98 -114
100 -110 3 5 19 71 37 148 18 77 39 145 46 151 7 6 71 33 141 59 71 27 132 51
136 55 4 4 -53 43 -127 88 l-134 82 -7 155 c-4 85 -10 155 -14 155 -3 0 -59
-45 -123 -100z"/>
<path d="M2650 2517 c-124 -61 -227 -111 -230 -112 -8 -2 -122 -56 -283 -135
-82 -39 -147 -76 -144 -83 2 -6 24 -28 49 -50 l47 -39 108 55 108 55 36 -31
c19 -18 92 -83 162 -144 l126 -113 -40 -110 c-21 -61 -39 -114 -39 -118 0 -10
100 -95 106 -90 4 5 26 66 179 513 56 165 112 327 124 359 23 67 23 69 -49
126 l-35 27 -225 -110z m174 -69 c-3 -5 -37 -94 -74 -196 -38 -103 -73 -187
-79 -187 -12 0 -231 193 -231 203 0 10 373 199 383 194 4 -2 4 -8 1 -14z"/>
<path d="M3251 2048 c-49 -101 -132 -273 -186 -383 -53 -110 -103 -214 -111
-232 l-14 -32 51 -26 c28 -14 56 -25 63 -25 6 0 25 28 41 63 16 34 80 166 141
292 105 216 112 228 118 195 7 -43 46 -438 46 -468 0 -17 14 -29 63 -53 l62
-31 219 141 c120 78 220 140 223 138 2 -2 -49 -112 -113 -243 -64 -131 -126
-259 -137 -284 -12 -25 -23 -48 -25 -52 -2 -4 24 -21 58 -38 l61 -31 68 143
c38 79 98 204 134 278 173 359 194 406 190 413 -3 4 -30 19 -60 33 l-56 24
-262 -174 c-145 -96 -272 -179 -282 -185 -24 -12 -20 -34 -53 349 -29 343 -21
311 -86 343 -30 15 -57 27 -60 27 -3 0 -45 -82 -93 -182z"/>
<path d="M7284 2172 c-126 -44 -229 -133 -280 -240 -33 -69 -44 -192 -24 -281
41 -188 209 -360 384 -392 151 -27 343 55 440 189 127 174 89 439 -89 617 -31
31 -82 67 -121 86 -61 30 -79 34 -164 37 -72 2 -108 -2 -146 -16z m257 -139
c66 -36 121 -98 167 -192 34 -69 37 -82 37 -160 0 -75 -3 -92 -27 -132 -35
-59 -87 -105 -158 -138 -44 -21 -70 -26 -130 -26 -92 1 -133 20 -208 99 -74
78 -114 168 -120 268 -4 69 -2 84 22 133 29 58 84 112 145 141 103 50 189 52
272 7z"/>
<path d="M6370 1786 c-179 -50 -331 -94 -339 -97 -11 -4 -11 -14 3 -62 9 -31
22 -57 29 -57 7 0 69 16 137 35 68 19 129 35 135 35 6 0 18 -28 27 -62 8 -35
46 -171 83 -303 37 -132 76 -274 87 -315 11 -41 21 -76 23 -78 7 -7 125 33
125 43 0 11 -43 167 -146 538 -31 109 -54 204 -51 210 3 7 62 28 131 47 70 19
132 37 137 41 7 4 5 24 -4 60 -10 41 -18 54 -33 55 -10 1 -165 -39 -344 -90z"/>
<path d="M4385 1768 c-2 -7 -41 -200 -85 -428 -44 -228 -83 -427 -86 -441 l-5
-26 293 -57 c161 -32 302 -59 314 -62 19 -5 22 1 33 56 7 34 11 63 9 65 -2 2
-111 24 -242 49 -132 26 -242 48 -244 51 -10 9 43 248 56 252 7 3 94 -11 192
-31 99 -20 185 -36 193 -36 17 0 40 112 25 121 -6 4 -97 23 -203 44 -129 24
-192 41 -190 48 2 7 14 65 26 130 19 107 23 117 43 117 12 0 123 -20 246 -45
123 -25 225 -43 228 -41 6 7 21 78 22 102 0 16 -8 23 -32 27 -85 15 -555 108
-571 113 -9 3 -19 0 -22 -8z"/>
<path d="M5766 1661 c-2 -3 3 -157 10 -341 7 -184 11 -336 9 -338 -2 -2 -117
147 -255 332 -214 287 -254 335 -273 332 -12 -3 -42 -5 -66 -5 l-44 -1 7 -222
c6 -224 11 -334 22 -570 l6 -128 66 0 65 0 -7 238 c-3 130 -9 287 -12 347 -6
97 -5 108 8 95 9 -8 95 -121 191 -251 97 -130 184 -242 192 -249 8 -7 15 -16
15 -21 0 -5 23 -39 51 -74 l51 -65 61 6 c34 3 63 7 65 9 2 2 -3 203 -12 447
-9 244 -16 449 -16 456 0 10 -17 13 -65 11 -36 -1 -67 -5 -69 -8z"/>
</g>
</svg>
